<svg version="1.1" viewBox="0.0 0.0 960.0 720.0" fill="none" stroke="none" stroke-linecap="square" stroke-miterlimit="10" xmlns:xlink="http://www.w3.org/1999/xlink" xmlns="http://www.w3.org/2000/svg"><clipPath id="p.0"><path d="m0 0l960.0 0l0 720.0l-960.0 0l0 -720.0z" clip-rule="nonzero"/></clipPath><g clip-path="url(#p.0)"><path fill="#000000" fill-opacity="0.0" d="m0 0l960.0 0l0 720.0l-960.0 0z" fill-rule="evenodd"/><path fill="#000000" d="m740.65314 280.35977l0 0c-7.6188965 -18.447205 -3.303894 -37.984497 9.637817 -43.637802l0 0c6.2148438 -2.7148132 13.62854 -1.7993622 20.61023 2.544983c6.9816895 4.344345 12.959412 11.761719 16.618103 20.620377l0 0c7.6189575 18.447174 3.303955 37.984467 -9.637756 43.637787l0 0c-12.941772 5.6533203 -29.609436 -4.71817 -37.228394 -23.165344z" fill-rule="evenodd"/><path stroke="#000000" stroke-width="1.0" stroke-linejoin="round" stroke-linecap="butt" d="m740.65314 280.35977l0 0c-7.6188965 -18.447205 -3.303894 -37.984497 9.637817 -43.637802l0 0c6.2148438 -2.7148132 13.62854 -1.7993622 20.61023 2.544983c6.9816895 4.344345 12.959412 11.761719 16.618103 20.620377l0 0c7.6189575 18.447174 3.303955 37.984467 -9.637756 43.637787l0 0c-12.941772 5.6533203 -29.609436 -4.71817 -37.228394 -23.165344z" fill-rule="evenodd"/><path fill="#000000" d="m791.2175 215.55579l0 0c5.244507 -20.978119 21.376404 -35.01593 36.031494 -31.354324l0 0c7.0376587 1.7583618 12.78656 7.4466095 15.982056 15.8134c3.1954956 8.3667755 3.5758057 18.72673 1.057312 28.800781l0 0c-5.244507 20.978119 -21.376404 35.01593 -36.031494 31.35431l0 0c-14.65509 -3.6615906 -22.283875 -23.636032 -17.039368 -44.614166z" fill-rule="evenodd"/><path stroke="#000000" stroke-width="1.0" stroke-linejoin="round" stroke-linecap="butt" d="m791.2175 215.55579l0 0c5.244507 -20.978119 21.376404 -35.01593 36.031494 -31.354324l0 0c7.0376587 1.7583618 12.78656 7.4466095 15.982056 15.8134c3.1954956 8.3667755 3.5758057 18.72673 1.057312 28.800781l0 0c-5.244507 20.978119 -21.376404 35.01593 -36.031494 31.35431l0 0c-14.65509 -3.6615906 -22.283875 -23.636032 -17.039368 -44.614166z" fill-rule="evenodd"/><path fill="#000000" d="m854.9042 231.46179l0 0c5.244568 -20.978134 21.376404 -35.015945 36.031494 -31.35434l0 0c7.0376587 1.7583618 12.78656 7.4466095 15.982056 15.8134c3.1954956 8.3667755 3.5758667 18.72673 1.057312 28.800781l0 0c-5.244507 20.978104 -21.376343 35.015915 -36.031494 31.354324l0 0c-14.65509 -3.6615906 -22.283875 -23.636047 -17.039368 -44.614166z" fill-rule="evenodd"/><path stroke="#000000" stroke-width="1.0" stroke-linejoin="round" stroke-linecap="butt" d="m854.9042 231.46179l0 0c5.244568 -20.978134 21.376404 -35.015945 36.031494 -31.35434l0 0c7.0376587 1.7583618 12.78656 7.4466095 15.982056 15.8134c3.1954956 8.3667755 3.5758667 18.72673 1.057312 28.800781l0 0c-5.244507 20.978104 -21.376343 35.015915 -36.031494 31.354324l0 0c-14.65509 -3.6615906 -22.283875 -23.636047 -17.039368 -44.614166z" fill-rule="evenodd"/><path fill="#000000" d="m903.1589 278.19315l0 0c14.255005 -12.828674 33.319946 -14.556061 42.58264 -3.8582764l0 0c4.44812 5.137268 5.99469 12.511383 4.2994995 20.500153c-1.6951904 7.988739 -6.493347 15.937744 -13.338867 22.098267l0 0c-14.255005 12.828674 -33.319946 14.556091 -42.58264 3.8582764l0 0c-9.262756 -10.697784 -5.2156982 -29.769745 9.039368 -42.59842z" fill-rule="evenodd"/><path stroke="#000000" stroke-width="1.0" stroke-linejoin="round" stroke-linecap="butt" d="m903.1589 278.19315l0 0c14.255005 -12.828674 33.319946 -14.556061 42.58264 -3.8582764l0 0c4.44812 5.137268 5.99469 12.511383 4.2994995 20.500153c-1.6951904 7.988739 -6.493347 15.937744 -13.338867 22.098267l0 0c-14.255005 12.828674 -33.319946 14.556091 -42.58264 3.8582764l0 0c-9.262756 -10.697784 -5.2156982 -29.769745 9.039368 -42.59842z" fill-rule="evenodd"/><path fill="#000000" d="m797.51526 297.7701l0 0c5.244507 -20.978119 26.495117 -33.732727 47.46454 -28.48819l0 0c10.069885 2.5185242 18.726868 8.935791 24.066467 17.840057c5.3395996 8.904297 6.9244995 19.566223 4.406006 29.640259l0 0c-5.244568 20.978119 -26.495178 33.732727 -47.4646 28.48819l0 0c-20.969421 -5.2445374 -33.71692 -26.502197 -28.472412 -47.480316z" fill-rule="evenodd"/><path stroke="#000000" stroke-width="1.0" stroke-linejoin="round" stroke-linecap="butt" d="m797.51526 297.7701l0 0c5.244507 -20.978119 26.495117 -33.732727 47.46454 -28.48819l0 0c10.069885 2.5185242 18.726868 8.935791 24.066467 17.840057c5.3395996 8.904297 6.9244995 19.566223 4.406006 29.640259l0 0c-5.244568 20.978119 -26.495178 33.732727 -47.4646 28.48819l0 0c-20.969421 -5.2445374 -33.71692 -26.502197 -28.472412 -47.480316z" fill-rule="evenodd"/><path fill="#000000" d="m819.83655 351.38754l0 0c-2.9918823 -21.32602 10.108154 -41.06076 29.259827 -44.078735l0 0c9.19696 -1.4493103 18.588013 1.2290344 26.107178 7.445801c7.519165 6.216736 12.550537 15.462677 13.987305 25.703796l0 0c2.9919434 21.32602 -10.108154 41.06073 -29.259827 44.078735l0 0c-19.151672 3.0180054 -37.1026 -11.823578 -40.094482 -33.149597z" fill-rule="evenodd"/><path stroke="#000000" stroke-width="1.0" stroke-linejoin="round" stroke-linecap="butt" d="m819.83655 351.38754l0 0c-2.9918823 -21.32602 10.108154 -41.06076 29.259827 -44.078735l0 0c9.19696 -1.4493103 18.588013 1.2290344 26.107178 7.445801c7.519165 6.216736 12.550537 15.462677 13.987305 25.703796l0 0c2.9919434 21.32602 -10.108154 41.06073 -29.259827 44.078735l0 0c-19.151672 3.0180054 -37.1026 -11.823578 -40.094482 -33.149597z" fill-rule="evenodd"/><path fill="#000000" d="m781.0425 318.441l0 0c11.489258 -18.229736 33.332153 -24.878479 48.787415 -14.850403l0 0c7.421875 4.815674 12.348022 12.911713 13.694763 22.50708c1.3466797 9.595367 -0.9963379 19.904053 -6.513672 28.658295l0 0c-11.489258 18.229736 -33.332153 24.878479 -48.787415 14.850403l0 0c-15.455261 -10.028107 -18.67035 -32.93564 -7.1810913 -51.165375z" fill-rule="evenodd"/><path stroke="#000000" stroke-width="1.0" stroke-linejoin="round" stroke-linecap="butt" d="m781.0425 318.441l0 0c11.489258 -18.229736 33.332153 -24.878479 48.787415 -14.850403l0 0c7.421875 4.815674 12.348022 12.911713 13.694763 22.50708c1.3466797 9.595367 -0.9963379 19.904053 -6.513672 28.658295l0 0c-11.489258 18.229736 -33.332153 24.878479 -48.787415 14.850403l0 0c-15.455261 -10.028107 -18.67035 -32.93564 -7.1810913 -51.165375z" fill-rule="evenodd"/><path fill="#000000" fill-opacity="0.0" d="m9.742783 217.64305l730.96063 0l0 179.2441l-730.96063 0z" fill-rule="evenodd"/><path fill="#000000" d="m33.852158 355.66367q-0.640625 0 -1.34375 -0.453125q-0.703125 -0.4375 -1.21875 -1.203125q-1.03125 -0.765625 -1.03125 -2.3125q0 -2.9375 4.359375 -15.484375q0.890625 -3.578125 1.921875 -6.90625q0.890625 -2.3125 0.890625 -3.46875q0 -1.015625 0.3125 -2.359375q0.328125 -1.34375 0.328125 -1.859375q1.53125 0 2.8125 -5.25q0.515625 -1.921875 0.890625 -3.265625q0.390625 -1.34375 0.515625 -2.109375q0.265625 -0.375 0.578125 -1.140625q0.328125 -0.78125 0.578125 -1.421875q1.03125 -3.0625 2.4375 -5.875q1.53125 -5.765625 3.640625 -12.09375q2.109375 -6.34375 3.515625 -9.421875l1.546875 -3.828125q0.125 -0.390625 0.5625 -1.46875q0.453125 -1.09375 0.453125 -1.609375q0 -0.515625 -0.375 -0.765625q-0.640625 -0.390625 -0.640625 -1.28125q0 -1.671875 3.0625 -4.359375q1.546875 -1.921875 2.625 -2.484375q1.09375 -0.578125 3.015625 -0.578125l4.09375 0.25q1.53125 0.125 8.1875 0.125q1.40625 0.640625 3.328125 1.28125q3.84375 1.28125 3.84375 1.796875q0 0.640625 0.4375 0.90625q0.453125 0.25 1.359375 0.375q1.28125 0 4.03125 2.875q2.75 2.875 4.15625 5.953125q0.890625 2.046875 1.34375 3.390625q0.453125 1.34375 0.453125 3.140625q0 1.921875 -0.265625 3.0625q-0.25 2.0625 -0.640625 3.984375q-0.375 1.90625 -0.890625 2.421875q-2.046875 1.53125 -2.046875 2.6875q0 1.03125 -3.265625 5.390625q-3.265625 4.34375 -6.203125 7.15625q-3.328125 3.84375 -7.9375 6.78125q-15.109375 6.78125 -21.125 6.53125q-4.09375 0.640625 -5.0 1.09375q-0.890625 0.4375 -1.390625 2.109375q-0.640625 1.65625 -1.21875 3.453125q-0.578125 1.796875 -0.578125 2.296875q-0.765625 1.40625 -3.390625 9.484375q-2.625 8.0625 -3.53125 12.03125q-0.5 1.65625 -1.140625 2.03125q-0.640625 0.390625 -2.046875 0.390625zm15.859375 -39.671875q0.265625 0.25 1.671875 0.25q1.65625 0 4.40625 -0.5q2.765625 -0.515625 5.328125 -1.546875q4.59375 -1.53125 10.234375 -4.984375q1.65625 -1.15625 4.15625 -3.453125q2.5 -2.3125 4.796875 -5.265625q0.78125 -1.265625 3.078125 -6.015625q1.015625 -1.78125 1.96875 -4.59375q0.96875 -2.828125 0.96875 -5.0q0 -1.015625 -0.125 -1.53125q-0.640625 -3.328125 -3.390625 -6.203125q-2.75 -2.890625 -6.328125 -3.90625q-2.6875 -0.515625 -4.875 -0.515625q-1.78125 0 -3.828125 0.375q-2.0625 0.640625 -3.015625 1.796875q-0.953125 1.15625 -2.5 4.859375q-2.9375 5.640625 -5.375 12.296875q-2.296875 8.578125 -4.609375 14.21875q-2.296875 5.625 -2.6875 6.515625l0 0.515625q0 0.765625 -0.125 1.53125q-0.125 0.765625 0.25 1.15625zm47.36789 33.53125q-0.390625 0.125 -1.28125 0.125q-2.046875 0 -3.203125 -2.046875q-1.140625 -2.046875 -1.140625 -5.625q0 -2.953125 0.765625 -6.796875q1.40625 -3.703125 1.40625 -5.375q0.375 -2.421875 2.609375 -8.75q2.25 -6.34375 2.890625 -7.625q0.515625 0 0.890625 -0.828125q0.390625 -0.84375 0.390625 -1.859375q0 -1.15625 0.4375 -2.375q0.453125 -1.21875 0.96875 -1.71875q0 -0.390625 0.3125 -1.40625q0.328125 -1.03125 0.328125 -1.421875q0 -0.25 0.3125 -0.953125q0.328125 -0.703125 0.328125 -1.09375q2.046875 -3.96875 7.15625 -17.84375q5.125 -13.890625 5.125 -15.4375q0 -2.046875 2.046875 -2.046875q0.640625 -0.640625 2.0625 -0.640625l2.046875 2.0625q0.890625 0.890625 1.140625 1.859375q0.265625 0.953125 0.265625 2.875q0 1.90625 -0.515625 3.328125q-0.515625 1.40625 -2.5625 5.75q-0.375 0.90625 -1.015625 2.125q-0.640625 1.203125 -1.421875 3.0q-0.25 0.640625 -2.046875 4.609375q-1.28125 2.5625 -1.28125 2.9375q0 0.390625 -0.515625 1.609375q-0.5 1.203125 -0.890625 2.484375q-1.015625 2.046875 -3.265625 7.234375q-2.234375 5.1875 -2.234375 5.703125q0 1.40625 -0.640625 2.046875q-0.375 0 -0.515625 0.578125q-0.125 0.578125 -0.125 0.828125q0 1.28125 -2.046875 6.78125l-1.15625 3.71875q-2.421875 8.3125 -3.390625 12.15625q-0.953125 3.84375 -0.953125 6.53125q0 3.203125 -0.203125 4.09375q-0.1875 0.890625 -1.078125 1.40625zm40.319504 -4.484375q-3.203125 2.828125 -7.6875 2.828125q-3.1875 0 -6.078125 -1.53125q-2.875 -1.546875 -4.796875 -4.234375q-1.65625 -2.046875 -2.4375 -4.609375q-0.765625 -2.5625 -0.765625 -6.265625q0 -1.28125 0.265625 -5.125q0.375 -4.734375 3.125 -9.859375q2.765625 -5.125 6.859375 -9.15625q4.09375 -4.03125 8.0625 -5.5625q2.046875 -1.28125 3.703125 -1.28125q0.90625 0 1.796875 0.125q0.890625 0.125 1.921875 0.265625q2.8125 0.375 4.28125 1.078125q1.484375 0.703125 2.5 2.109375q3.203125 3.203125 3.203125 7.4375q-0.515625 3.0625 -3.96875 7.03125q-3.453125 3.96875 -8.328125 6.40625q-2.296875 0.765625 -5.234375 0.765625q-3.96875 0 -6.40625 -1.671875q-1.15625 -0.375 -1.796875 -0.375q-1.140625 0 -1.71875 1.53125q-0.578125 1.53125 -1.09375 5.640625q-0.125 0.890625 -0.125 2.546875q0 6.53125 4.34375 7.171875q2.953125 0.640625 4.234375 0.640625q1.53125 0 3.453125 -1.015625l2.4375 -1.421875q0.765625 -0.375 1.40625 -1.015625q0.640625 -0.640625 1.140625 -1.15625q0.265625 -0.25 0.765625 -0.828125q0.515625 -0.578125 0.96875 -0.765625q0.453125 -0.1875 0.828125 -0.1875q0.515625 0 1.15625 0.578125q0.640625 0.5625 1.03125 0.828125q1.140625 0 0.5 1.59375q-0.640625 1.59375 -2.75 3.71875q-2.109375 2.109375 -4.796875 3.765625zm-0.125 -27.125q2.171875 -0.90625 4.40625 -3.203125q2.25 -2.3125 2.25 -3.84375q0 -1.53125 -1.15625 -2.546875q-1.15625 -1.03125 -3.203125 -1.03125q-1.53125 0 -2.296875 0.25q-1.796875 0.515625 -4.234375 2.765625q-2.421875 2.234375 -4.21875 4.53125q-1.796875 2.296875 -1.40625 2.6875q0.640625 1.15625 5.0 1.15625q2.9375 0 4.859375 -0.765625zm30.084381 27.890625q-1.28125 0.265625 -2.3125 0.265625q-1.65625 0 -3.078125 -0.3125q-1.40625 -0.328125 -1.40625 -0.84375q0 -0.375 -0.125 -0.5q-0.125 -0.140625 -0.515625 -0.140625q-0.125 -0.125 -0.765625 -0.640625q-0.640625 -0.515625 -1.53125 -0.890625q-1.15625 -1.796875 -1.15625 -3.84375q0 -2.171875 1.15625 -6.78125q0.390625 -4.09375 3.84375 -10.234375q3.453125 -6.15625 8.125 -11.65625q4.671875 -5.5 8.375 -7.671875q1.921875 -1.921875 4.875 -1.921875q2.296875 0 4.34375 1.140625q1.796875 1.03125 3.78125 3.46875q1.984375 2.421875 3.140625 4.984375q0.5 1.921875 0.5 3.71875q0 1.921875 -0.5 6.015625q-0.640625 2.296875 -1.09375 5.625q-0.453125 3.328125 -0.453125 5.765625q-0.25 1.78125 0.25 2.875q0.515625 1.09375 1.421875 1.09375q0.640625 0 1.40625 -0.390625q1.28125 -0.640625 2.8125 -0.640625q1.40625 0 2.296875 0.765625q0.90625 0.765625 0.90625 2.3125q0 2.296875 -3.140625 4.609375q-3.125 2.296875 -5.953125 2.296875q-1.921875 0 -3.515625 -3.0q-1.59375 -3.015625 -3.140625 -7.75l-0.765625 -2.9375l-5.5 5.234375l-2.9375 2.953125q-2.0625 2.046875 -2.3125 2.4375q-1.40625 2.421875 -7.03125 4.59375zm0.375 -7.546875q3.078125 -1.796875 7.546875 -6.265625q4.484375 -4.484375 7.4375 -8.578125q3.96875 -5.25 4.984375 -10.375q-0.515625 -1.53125 -1.671875 -3.0625q-1.140625 -1.546875 -2.046875 -1.671875q-2.546875 0 -5.375 2.953125q-2.8125 2.9375 -6.65625 8.1875l-4.21875 6.265625q-0.765625 1.03125 -2.6875 5.453125q-1.921875 4.40625 -1.921875 5.296875q0 2.828125 1.671875 2.828125q1.28125 0 2.9375 -1.03125zm50.312378 10.234375q-4.359375 0 -7.5625 -1.78125q-3.203125 -1.796875 -4.21875 -4.875q-0.890625 -2.296875 -0.890625 -2.546875q0 -0.78125 0.890625 -1.15625q0.890625 0 2.109375 0.765625q1.21875 0.765625 1.984375 1.03125q1.921875 1.78125 5.25 1.78125q2.5625 0 4.671875 -1.015625q2.109375 -1.03125 2.359375 -2.4375q0 -0.640625 -1.265625 -4.484375q-3.203125 -4.609375 -4.9375 -9.40625q-1.71875 -4.796875 -1.71875 -8.125q0 -2.4375 1.40625 -4.984375q1.40625 -2.5625 3.828125 -4.359375q3.203125 -3.328125 7.75 -6.015625q4.546875 -2.6875 8.25 -3.71875q1.546875 0 3.78125 0.390625q2.234375 0.390625 3.140625 0.890625q1.40625 0.515625 2.6875 2.828125q1.28125 2.296875 1.28125 4.34375q0 2.046875 -2.1875 5.640625q-0.25 0.890625 -1.015625 2.4375q-0.765625 1.53125 -0.765625 1.90625q-0.515625 1.28125 -1.671875 1.28125q-1.140625 0 -2.234375 -1.078125q-1.09375 -1.09375 -1.734375 -2.640625q-0.375 -1.53125 -0.375 -2.6875q0 -1.53125 1.015625 -3.0625q1.40625 -1.40625 1.40625 -1.921875q0 -0.515625 -1.40625 -0.515625q-1.53125 0 -5.890625 2.4375q-4.34375 2.421875 -6.90625 5.125q-2.296875 2.171875 -2.8125 3.265625q-0.515625 1.078125 -0.515625 3.25q0 1.921875 0.828125 4.546875q0.84375 2.625 1.734375 3.515625q0.25 0.515625 1.078125 2.1875q0.84375 1.65625 2.0 3.1875q2.546875 5.765625 2.546875 8.96875q0 3.703125 -2.875 5.375q-2.875 1.65625 -9.015625 1.65625zm42.36676 -2.046875q-4.109375 -1.65625 -5.765625 -4.28125q-1.65625 -2.625 -1.65625 -7.359375q0 -2.3125 0.375 -5.375l0.25 -4.609375q0 -1.15625 -0.25 -1.796875q-0.25 -0.640625 -1.15625 -1.40625q-0.25 -0.25 -1.28125 -1.265625q-1.015625 -1.03125 -0.890625 -1.671875l-0.125 -0.640625q0 -0.90625 0.3125 -1.671875q0.328125 -0.765625 0.703125 -0.765625q0.390625 0 1.03125 -0.1875q0.640625 -0.1875 1.15625 -0.0625q1.78125 0 1.78125 0.765625q0.515625 1.015625 1.734375 0.1875q1.21875 -0.828125 2.375 -3.265625q1.78125 -2.8125 5.296875 -5.9375q3.53125 -3.140625 5.828125 -4.421875q0.90625 -0.515625 2.953125 -0.953125q2.046875 -0.453125 3.578125 -0.453125q2.296875 0 4.03125 1.03125q1.734375 1.015625 3.515625 2.9375q2.4375 1.78125 2.4375 5.625q0 2.6875 -1.28125 5.5q-0.515625 1.921875 -4.03125 4.875q-3.515625 2.9375 -6.46875 4.09375q-3.578125 0.890625 -8.1875 0.890625q-3.078125 0 -3.96875 -0.515625q-1.53125 -0.890625 -2.171875 6.921875q-0.125 0.890625 -0.125 2.421875q0 2.1875 0.640625 3.453125q0.125 0.140625 0.890625 0.96875q0.765625 0.828125 1.921875 1.40625q1.15625 0.578125 2.421875 0.578125q1.15625 0 1.796875 -0.25q1.40625 -0.390625 2.6875 -1.46875q1.28125 -1.09375 3.59375 -3.40625q2.046875 -2.046875 2.9375 -2.8125q0.640625 -1.15625 2.5625 -1.15625q0.515625 0 1.796875 0.265625q1.140625 0.890625 1.140625 1.921875q0 1.015625 -1.28125 3.828125q-0.640625 1.28125 -3.140625 3.53125q-2.484375 2.234375 -4.40625 3.515625q-3.96875 2.171875 -7.9375 2.171875q-2.4375 0 -5.625 -1.15625zm7.546875 -25.984375q1.28125 -0.25 3.703125 -0.625q2.4375 -0.390625 4.03125 -1.734375q1.609375 -1.34375 3.78125 -4.671875q0.390625 -1.03125 0.390625 -2.046875q0 -1.921875 -0.765625 -2.6875q-0.90625 -0.90625 -2.046875 -0.90625q-1.796875 0 -3.71875 1.546875q-1.28125 0.375 -3.78125 2.8125q-2.484375 2.4375 -4.28125 4.8125q-1.796875 2.359375 -1.15625 2.734375q-0.25 0.390625 1.28125 0.578125q1.53125 0.1875 2.5625 0.1875zm52.091614 33.28125q-1.40625 -0.765625 -1.984375 -1.40625q-0.578125 -0.640625 -0.578125 -1.65625q0 -1.28125 1.09375 -3.640625q1.09375 -2.375 3.78125 -7.5q0.765625 -1.65625 2.9375 -5.890625q7.421875 -14.203125 7.421875 -15.484375q-0.125 -0.25 -0.125 -0.765625q0 -1.28125 2.046875 -2.3125q2.953125 -2.9375 4.859375 -6.265625q1.28125 -2.8125 3.453125 -6.71875q2.1875 -3.90625 5.390625 -9.28125q1.53125 -2.6875 4.609375 -7.8125q4.734375 -8.4375 12.15625 -18.421875q2.9375 -3.96875 4.859375 -3.84375q2.4375 0 5.4375 2.25q3.015625 2.234375 4.171875 5.046875q0.5 0.890625 0.5 3.84375q0 3.953125 -0.890625 13.4375q-0.25 1.65625 -0.515625 5.25q-0.375 5.75 -1.15625 12.28125q-1.40625 14.328125 -2.046875 22.40625q-0.640625 8.0625 -0.640625 15.09375q0 3.59375 0.140625 5.25l0 0.890625l-0.140625 2.953125q-0.765625 0.765625 -2.296875 0.765625q-1.796875 0 -3.46875 -0.828125q-1.65625 -0.828125 -1.90625 -1.984375q-0.125 -0.125 -0.390625 -0.25q-0.25 -0.140625 -0.25 -1.15625l0.125 -2.828125l0.390625 -7.15625l0.640625 -20.734375l-1.671875 0.125q-2.5625 0 -11.390625 1.03125q-8.828125 1.015625 -11.0 1.65625q-1.15625 0 -2.828125 1.53125q-1.65625 1.53125 -2.9375 3.96875q-0.390625 1.28125 -1.796875 3.65625q-1.40625 2.359375 -1.40625 2.75q-0.765625 0.5 -1.34375 1.34375q-0.578125 0.828125 -0.703125 1.078125q0 1.40625 -2.625 7.171875q-2.625 5.765625 -5.1875 9.59375l-2.6875 4.109375l-2.046875 -1.546875zm26.5 -41.203125q0.765625 -0.140625 3.328125 -0.578125q2.5625 -0.453125 4.609375 -0.578125q9.21875 -2.171875 11.265625 -2.171875q0.890625 0 1.65625 0.375q0.390625 0.515625 0.828125 0.703125q0.453125 0.1875 0.578125 0.1875q0.265625 -0.765625 1.609375 -13.875q1.34375 -13.125 1.46875 -17.484375l0.390625 -6.390625q-0.78125 0 -3.34375 2.953125q-2.546875 2.9375 -5.6875 7.609375q-3.140625 4.671875 -5.5625 9.53125q-1.28125 2.296875 -2.5 4.28125q-1.21875 1.984375 -1.734375 1.984375q-0.890625 0.90625 -4.21875 6.921875q-3.328125 6.015625 -2.6875 6.53125zm70.27164 36.59375q-0.890625 0.390625 -1.53125 0.390625q-0.515625 0 -1.28125 -0.515625q-0.765625 -0.515625 -1.921875 -1.40625q-0.890625 -1.40625 -1.09375 -2.546875q-0.1875 -1.15625 -0.1875 -4.625q0.390625 -3.578125 2.9375 -12.71875q2.5625 -9.15625 3.71875 -11.84375q0.515625 -1.671875 0.515625 -2.828125q0 -1.015625 -0.640625 -1.328125q-0.640625 -0.328125 -2.5625 -0.59375q-4.734375 -0.5 -8.765625 2.953125q-4.03125 3.453125 -8.640625 10.75q-4.09375 6.40625 -4.09375 11.140625q0 0.890625 0.25 1.65625q0.390625 1.03125 2.046875 1.03125q1.15625 0 2.875 -0.515625q1.734375 -0.515625 3.015625 -1.28125q0.765625 -0.390625 4.859375 -2.171875q0.765625 0 1.078125 0.453125q0.328125 0.4375 0.328125 1.71875q0 1.03125 1.28125 1.53125q0.515625 0.640625 -1.53125 2.375q-2.046875 1.71875 -6.015625 4.03125q-3.203125 0.890625 -5.765625 0.890625q-2.5625 0 -4.984375 -1.65625q-4.21875 -2.4375 -4.21875 -8.703125q0 -4.234375 2.171875 -10.5q2.171875 -5.125 4.796875 -8.640625q2.625 -3.515625 6.84375 -7.875q0.640625 -0.640625 2.625 -1.71875q1.984375 -1.09375 4.421875 -1.859375q4.09375 -1.28125 6.78125 -1.28125q2.296875 0 4.09375 1.15625l1.671875 0.25q1.015625 0 1.59375 -0.890625q0.578125 -0.90625 1.859375 -4.09375l3.203125 -8.453125q1.015625 -2.6875 3.125 -8.1875q2.109375 -5.515625 3.90625 -9.734375q0.90625 -1.671875 1.46875 -3.453125q0.578125 -1.796875 0.96875 -2.171875l2.421875 0q0.640625 0 1.921875 0.953125q1.28125 0.953125 1.671875 2.359375q0 1.421875 -1.15625 5.453125q-1.15625 4.03125 -3.203125 8.890625q-1.015625 2.5625 -1.65625 3.84375q-4.484375 10.625 -6.140625 15.875l-2.3125 5.875q-1.53125 3.203125 -1.796875 4.75q-0.890625 3.703125 -2.046875 6.453125q-1.140625 2.75 -1.28125 3.140625l-1.140625 3.453125q-2.1875 6.265625 -2.890625 8.765625q-0.703125 2.5 -0.703125 5.0625q0 2.5625 0.265625 4.21875q0 1.40625 -1.15625 2.171875zm30.585236 -1.53125q-1.53125 0 -2.4375 -0.5q-0.890625 -0.515625 -2.546875 -1.9375q-4.21875 -4.46875 -4.21875 -8.1875q0 -0.890625 0.125 -1.28125q0.375 -0.890625 0.3125 -1.78125q-0.0625 -0.90625 -0.0625 -1.15625q-0.515625 -0.515625 -0.515625 -0.703125q0 -0.1875 0.25 -0.375q0.265625 -0.203125 0.390625 -0.453125q0.78125 0 0.515625 -1.421875q-0.25 -1.015625 1.03125 -4.53125q1.28125 -3.53125 3.1875 -6.46875q1.421875 -2.3125 4.171875 -5.765625q2.75 -3.453125 4.921875 -5.25q3.078125 -2.6875 5.5 -3.953125q2.4375 -1.28125 5.375 -1.921875q2.5625 -0.640625 3.46875 -0.640625q0.890625 0 1.59375 0.453125q0.703125 0.4375 1.859375 1.59375q3.453125 1.53125 4.796875 3.90625q1.34375 2.359375 1.34375 7.359375q0 8.3125 -6.78125 18.046875q-2.953125 4.21875 -5.515625 6.46875q-2.546875 2.234375 -6.78125 4.796875q-2.6875 1.90625 -4.921875 2.75q-2.234375 0.828125 -5.0625 0.953125zm12.296875 -13.5625q3.0625 -3.453125 4.921875 -6.53125q1.859375 -3.078125 3.53125 -7.8125q0.640625 -2.171875 0.640625 -5.25q0 -3.828125 -1.03125 -4.34375q-1.28125 -0.640625 -2.5625 -0.640625q-2.8125 0 -5.890625 2.5625q-3.703125 3.203125 -6.65625 7.875q-2.9375 4.671875 -6.015625 11.578125q-1.28125 2.6875 -1.28125 5.25q0 1.921875 0.953125 3.078125q0.96875 1.140625 2.640625 1.140625q4.21875 0 10.75 -6.90625zm18.043396 44.28125q-1.015625 0 -1.65625 -1.15625q-0.640625 -0.890625 -0.640625 -2.171875q0 -0.890625 0.640625 -4.34375q1.40625 -5.375 1.40625 -7.421875q0 -0.640625 0.25 -1.859375q0.265625 -1.21875 0.390625 -2.25q0.515625 -0.890625 0.953125 -2.75q0.453125 -1.859375 0.453125 -3.265625q0 -0.640625 0.4375 -1.46875q0.453125 -0.828125 1.09375 -1.34375q0 -0.765625 0.375 -2.359375q0.390625 -1.609375 0.53125 -2.25q0.625 -3.453125 4.984375 -16.375q4.359375 -12.9375 7.421875 -20.875q1.40625 -3.1875 2.046875 -5.875q0.640625 -2.6875 0.640625 -4.234375q0 -0.515625 0.3125 -0.953125q0.328125 -0.453125 1.09375 -1.21875q0.90625 -0.890625 1.671875 -0.890625q0.640625 0 1.40625 0.515625q0.765625 0.5 1.53125 1.140625q0.765625 1.15625 1.21875 2.1875q0.453125 1.015625 0.453125 2.171875q0 0.375 -0.265625 2.421875q0 2.6875 -1.15625 4.421875q-1.140625 1.71875 -0.890625 1.59375q5.765625 -2.6875 10.2500305 -2.6875q5.375 0 8.375 3.46875q3.015625 3.453125 3.015625 8.953125q0 2.296875 -1.34375 5.5625q-1.34375 3.265625 -2.625 4.421875q-0.765625 0 -2.046875 2.6875q-1.671875 2.046875 -5.515625 4.296875q-3.8281555 2.234375 -5.3750305 1.71875q-0.125 0 -0.390625 0.125q-0.25 0.125 -0.25 0.640625q0 0.515625 -4.359375 1.921875q-4.34375 1.40625 -7.15625 1.40625q-1.53125 0 -2.3125 -0.1875q-0.765625 -0.203125 -1.53125 -0.828125q-0.890625 0.890625 -0.890625 1.65625q0 1.40625 -1.28125 5.125q-1.28125 3.703125 -2.046875 3.703125q-0.125 0.125 -0.328125 0.515625q-0.1875 0.390625 0.328125 0.890625q0 0.390625 -0.125 1.796875q-0.125 1.40625 -0.640625 2.171875q0 1.15625 -0.390625 3.140625q-0.375 1.984375 -0.890625 3.015625q0 1.53125 -0.453125 3.0q-0.4375 1.46875 -0.953125 1.46875q-0.765625 0.265625 -0.765625 3.71875q-0.140625 3.203125 -1.296875 4.984375q-1.140625 1.796875 -2.671875 1.796875l-1.03125 0.125zm16.515625 -42.875q1.921875 0 7.734375 -1.984375q5.828125 -1.984375 8.140625 -3.90625q2.6875305 -2.296875 4.3437805 -4.921875q1.671875 -2.625 1.671875 -5.3125q0 -2.046875 -1.15625 -3.71875q-0.890625 -1.40625 -3.0781555 -1.40625q-2.546875 0 -6.078125 1.796875q-3.515625 1.78125 -6.453125 4.734375q-2.3125 2.296875 -4.109375 6.59375q-1.78125 4.28125 -1.78125 6.71875q0 1.40625 0.765625 1.40625zm53.884003 13.828125q-1.78125 -0.515625 -2.9375 -1.15625q-1.15625 -0.640625 -3.078125 -2.4375q-2.296875 -3.0625 -3.0 -5.6875q-0.703125 -2.625 -0.703125 -8.390625q0 -3.0625 3.453125 -16.890625q-0.265625 0.890625 0.890625 -3.71875q0.390625 -1.40625 -1.03125 -1.78125q-1.40625 -0.390625 -3.953125 -0.390625q-2.1875 0 -2.5625 -0.25q-0.390625 -0.140625 -0.453125 -0.390625q-0.0625 -0.25 -0.0625 -0.390625q0 -0.640625 -0.515625 -1.53125q-0.125 -0.125 -0.125 -0.375q0 -0.640625 0.703125 -1.40625q0.703125 -0.78125 1.734375 -0.90625q0.640625 -0.125 2.9375 -0.375q2.3125 -0.265625 4.359375 -1.03125q2.046875 -0.765625 3.1875 -2.171875q1.671875 -4.234375 4.234375 -9.546875q2.5625 -5.3125 3.453125 -6.328125q2.046875 -1.03125 2.8125 -1.03125q0.765625 0 1.28125 0.515625q0.515625 0.515625 1.40625 1.796875q0.125 0.25 0.640625 0.890625q0.515625 0.640625 0.515625 1.28125q0 1.03125 -0.96875 3.078125q-0.953125 2.046875 -3.765625 7.15625l-1.671875 3.203125q0.390625 0.125 1.796875 0.125q1.40625 0 2.3125 -0.125q2.8125 -0.515625 5.234375 -0.515625q1.28125 0 1.796875 0.140625q2.9375 0 4.28125 1.09375q1.359375 1.078125 1.609375 3.640625q0.25 1.40625 -0.515625 1.671875q-0.765625 0.25 -4.34375 0.25q-14.859375 0.640625 -14.984375 1.140625q-0.515625 0.390625 -1.921875 4.484375q-1.40625 4.09375 -2.421875 7.8125q-1.671875 7.671875 -1.671875 13.5625q0 5.375 1.53125 7.171875q0.640625 0.640625 2.4375 0.640625q1.796875 0 3.90625 -0.703125q2.109375 -0.703125 3.515625 -1.859375q2.3125 -1.921875 3.84375 -1.921875q0.765625 0 1.203125 0.453125q0.453125 0.4375 0.453125 1.078125q0 1.421875 -1.53125 3.59375q-1.921875 2.9375 -5.125 4.859375q-3.1875 1.921875 -6.140625 1.921875q-1.40625 0 -2.046875 -0.25zm129.15656 6.390625q0 0.515625 -0.890625 0.515625q-0.640625 0 -1.546875 -0.515625q-0.890625 -0.515625 -1.40625 -1.40625q-1.015625 -2.171875 -1.015625 -5.375l0.125 -5.25q3.96875 -23.296875 9.34375 -46.84375q1.796875 -6.28125 3.0 -11.90625q1.21875 -5.625 1.484375 -7.171875q0 -0.375 -0.71875 0.328125q-0.703125 0.703125 -1.34375 1.671875q-0.625 0.953125 -0.5 1.328125l-3.203125 4.734375q-0.765625 0.78125 -3.578125 5.890625q-1.921875 4.09375 -3.46875 6.40625l-3.578125 6.78125q-3.96875 7.296875 -4.859375 8.828125q-1.28125 1.921875 -3.71875 6.65625q-1.28125 3.078125 -4.609375 7.296875q-1.015625 1.40625 -1.984375 3.078125q-0.953125 1.65625 -1.21875 2.171875q0 0.640625 -2.625 4.359375q-2.609375 3.703125 -4.796875 6.140625q-2.9375 3.0625 -4.859375 4.40625q-1.921875 1.34375 -3.578125 1.34375q-2.1875 0 -4.75 -2.421875q-1.65625 -1.796875 -2.359375 -4.21875q-0.703125 -2.4375 -0.703125 -6.03125q0 -3.1875 0.890625 -10.75q0.125 -0.640625 2.4375 -13.6875q2.4375 -13.1875 2.9375 -14.46875q0.125 -0.765625 0.125 -1.796875q0 -1.140625 -0.375 -1.140625q-0.390625 0 -1.40625 1.65625q-0.390625 0.515625 -4.546875 7.171875q-4.15625 6.65625 -8.890625 17.015625q-7.4375 13.703125 -11.015625 20.5625q-3.578125 6.84375 -5.25 9.78125q-2.171875 4.21875 -2.5625 4.609375q-1.90625 0 -4.859375 -3.203125q-0.375 -0.765625 -0.375 -1.40625q0 -0.890625 0.828125 -2.9375q0.828125 -2.0625 2.359375 -5.390625q3.96875 -7.796875 5.25 -8.828125q1.546875 -2.046875 1.796875 -4.484375q1.65625 -2.296875 4.734375 -8.3125q1.921875 -3.078125 4.546875 -7.671875q2.625 -4.609375 4.671875 -8.84375l3.578125 -6.265625q5.0 -8.703125 8.0 -13.4375q3.015625 -4.734375 4.546875 -6.28125q2.046875 -2.421875 2.046875 -3.84375q0 -2.6875 1.078125 -4.921875q1.09375 -2.234375 2.25 -1.984375q1.53125 0 2.484375 0.328125q0.96875 0.3125 2.0 1.59375q0.25 0.390625 0.828125 1.21875q0.578125 0.828125 0.890625 1.796875q0.328125 0.953125 0.328125 2.359375q0 1.53125 -0.390625 3.84375q-0.125 1.65625 -1.015625 7.546875q-0.515625 2.8125 -0.515625 3.453125q-3.328125 10.125 -5.953125 25.296875q-2.625 15.15625 -2.625 21.296875q0 1.40625 0.265625 1.921875q0.890625 0.640625 1.59375 0.140625q0.703125 -0.515625 2.109375 -3.34375q1.671875 -3.0625 5.640625 -7.9375q0.25 -0.375 4.984375 -8.4375q11.78125 -19.328125 22.90625 -38.78125l3.328125 -5.25q1.921875 -3.078125 3.71875 -5.703125q1.796875 -2.625 2.8125 -3.390625q1.28125 -1.015625 2.4375 -1.015625q2.421875 0 4.34375 2.9375q1.921875 2.9375 1.921875 7.421875q0 3.453125 -1.40625 10.5625q-1.40625 7.109375 -3.703125 14.265625q-0.78125 3.59375 -2.1875 8.96875q-1.40625 5.375 -2.9375 9.71875q-0.265625 2.1875 -1.03125 5.515625q-0.125 0.640625 -0.703125 3.90625q-0.578125 3.25 -0.3125 4.40625q-1.921875 3.453125 -1.921875 13.828125l-0.390625 2.9375q-0.25 3.59375 -0.515625 4.859375q-0.25 1.28125 -0.765625 1.15625q-0.25 -0.125 -0.765625 -0.125q-0.890625 0 -0.890625 0.765625zm32.64441 -5.75q-5.515625 0 -9.09375 -4.09375q-3.578125 -4.109375 -3.578125 -10.25q0 -6.140625 2.75 -13.5q2.75 -7.359375 7.09375 -13.25q4.359375 -5.890625 8.84375 -7.9375q2.546875 -1.40625 5.75 -1.40625q2.4375 0 5.515625 1.40625q2.171875 0.890625 3.3125 2.171875q1.15625 1.28125 2.0625 3.96875q0.375 2.3125 0.375 3.203125q0 0.765625 -0.640625 3.328125q-1.53125 4.734375 -4.03125 8.0q-2.5 3.265625 -6.46875 5.5625q-2.046875 1.28125 -5.109375 1.28125q-2.6875 0 -5.0625 -0.953125q-2.359375 -0.96875 -3.640625 -2.875l-0.90625 -1.03125l-0.375 1.03125q-2.6875 6.90625 -2.6875 11.765625q0 3.328125 1.28125 5.375q0.890625 1.40625 4.34375 1.40625q2.5625 0 3.71875 -0.5q1.921875 -0.640625 3.390625 -1.59375q1.46875 -0.96875 2.875 -2.0l0.515625 -0.25l-0.125 0q1.53125 -0.765625 2.546875 -1.40625q1.03125 -0.640625 1.421875 -0.90625q0.25 0 0.5 -0.125q0.265625 -0.125 0.515625 -0.515625q1.15625 -0.5 2.6875 0.390625q1.546875 0.890625 1.546875 2.296875q-0.265625 1.03125 -2.3125 3.34375q-2.046875 2.296875 -3.0625 2.421875q-0.140625 0 -0.90625 0.390625q-0.765625 0.375 -1.015625 0.640625l0.125 0q-1.15625 1.53125 -2.3125 1.53125l-1.015625 0q-0.515625 1.03125 -3.40625 2.0625q-2.875 1.015625 -5.421875 1.015625zm5.75 -28.171875q3.84375 0 7.046875 -4.34375q3.0625 -4.09375 3.0625 -8.1875q0 -2.1875 -0.890625 -3.078125q-0.765625 -0.390625 -1.40625 -0.390625q-0.640625 0 -2.171875 0.390625q-1.671875 0.375 -5.125 3.515625q-3.453125 3.140625 -5.125 5.578125l-1.65625 2.6875q1.015625 -0.390625 1.96875 -0.453125q0.96875 -0.0625 1.09375 0.1875q0 1.796875 0.890625 2.953125q0.90625 1.140625 2.3125 1.140625z" fill-rule="nonzero"/></g></svg>